<svg xmlns="http://www.w3.org/2000/svg" version="1.1" xmlns:xlink="http://www.w3.org/1999/xlink" xmlns:svgjs="http://svgjs.dev/svgjs" width="2000" height="1500" viewBox="0 0 2000 1500"><rect width="2000" height="1500" fill="#00b5ad"></rect><g transform="matrix(0.75,0,0,0.75,249.090909090909,489.66940396378936)"><svg viewBox="0 0 396 138" data-background-color="#00b5ad" preserveAspectRatio="xMidYMid meet" height="696" width="2000" xmlns="http://www.w3.org/2000/svg" xmlns:xlink="http://www.w3.org/1999/xlink"><g id="tight-bounds" transform="matrix(1,0,0,1,0.2400000000000091,-0.17696886399028244)"><svg viewBox="0 0 395.52 138.35393772798054" height="138.35393772798054" width="395.52"><g><svg viewBox="0 0 710.4052048327364 248.5016117290192" height="138.35393772798054" width="395.52"><g transform="matrix(1,0,0,1,355.7269439631713,0.6508058645096071)"><svg viewBox="0 0 354.6782608695652 247.2" height="247.2" width="354.6782608695652"><g><svg viewBox="0 0 354.6782608695652 247.2" height="247.2" width="354.6782608695652"><g><svg viewBox="0 0 354.6782608695652 247.2" height="247.2" width="354.6782608695652"><g transform="matrix(1,0,0,1,0,0)"><svg width="354.6782608695652" viewBox="58.900000000000006 -35.5 112.65 75.2" height="247.2" data-palette-color="#ffffff"><svg></svg><svg></svg><g class="undefined-text-0" data-fill-palette-color="primary" id="text-0"><path transform="translate(55.2,0)" d="M16.2 0.6v0c-8.333 0-12.5-6.017-12.5-18.05v0c0-12.033 4.167-18.05 12.5-18.05v0c1.433 0 2.7 0.2 3.8 0.6 1.1 0.4 2.067 0.933 2.9 1.6 0.833 0.667 1.543 1.45 2.13 2.35 0.58 0.9 1.07 1.85 1.47 2.85v0l-2.55 1.15c-0.333-0.833-0.723-1.617-1.17-2.35-0.453-0.733-0.987-1.367-1.6-1.9-0.62-0.533-1.337-0.95-2.15-1.25-0.82-0.3-1.763-0.45-2.83-0.45v0c-3.133 0-5.467 1.14-7 3.42-1.533 2.287-2.3 5.513-2.3 9.68v0 4.7c0 4.167 0.767 7.39 2.3 9.67 1.533 2.287 3.867 3.43 7 3.43v0c1.067 0 2.01-0.15 2.83-0.45 0.813-0.3 1.53-0.717 2.15-1.25 0.613-0.533 1.147-1.16 1.6-1.88 0.447-0.713 0.837-1.503 1.17-2.37v0l2.55 1.15c-0.4 1-0.89 1.95-1.47 2.85-0.587 0.9-1.297 1.683-2.13 2.35-0.833 0.667-1.8 1.2-2.9 1.6-1.1 0.4-2.367 0.6-3.8 0.6zM45 0.6v0c-4.033 0-7.027-1.51-8.98-4.53-1.947-3.013-2.92-7.52-2.92-13.52v0c0-6 0.973-10.51 2.92-13.53 1.953-3.013 4.947-4.52 8.98-4.52v0c4.033 0 7.027 1.507 8.98 4.52 1.947 3.02 2.92 7.53 2.92 13.53v0c0 6-0.973 10.507-2.92 13.52-1.953 3.02-4.947 4.53-8.98 4.53zM45-2v0c3 0 5.2-1.143 6.6-3.43 1.4-2.28 2.1-5.503 2.1-9.67v0-4.7c0-4.133-0.7-7.35-2.1-9.65-1.4-2.3-3.6-3.45-6.6-3.45v0c-3 0-5.2 1.15-6.6 3.45-1.4 2.3-2.1 5.517-2.1 9.65v0 4.7c0 4.167 0.7 7.39 2.1 9.67 1.4 2.287 3.6 3.43 6.6 3.43zM65 0v-34.9h9.5c4.233 0 7.36 1.473 9.38 4.42 2.013 2.953 3.02 7.297 3.02 13.03v0c0 5.767-1.007 10.117-3.02 13.05-2.02 2.933-5.147 4.4-9.38 4.4v0zM68-2.6h6.4c3.167 0 5.507-1.11 7.02-3.33 1.52-2.213 2.28-5.303 2.28-9.27v0-4.5c0-3.967-0.76-7.06-2.28-9.28-1.513-2.213-3.853-3.32-7.02-3.32v0h-6.4zM115.9 0h-21.05v-34.9h21.05v2.6h-18.05v13.3h17.4v2.6h-17.4v13.8h18.05z" fill="#ffffff" fill-rule="nonzero" stroke="none" stroke-width="1" stroke-linecap="butt" stroke-linejoin="miter" stroke-miterlimit="10" stroke-dasharray="" stroke-dashoffset="0" font-family="none" font-weight="none" font-size="none" text-anchor="none" style="mix-blend-mode: normal" data-fill-palette-color="primary" opacity="1"></path><path transform="translate(55.65,39.1)" d="M4.6 0v-34.9h11.55c2.833 0 5.05 0.783 6.65 2.35 1.6 1.567 2.4 3.767 2.4 6.6v0c0 2.167-0.467 3.873-1.4 5.12-0.933 1.253-2.2 2.13-3.8 2.63v0 0.1c2.033 0.433 3.643 1.34 4.83 2.72 1.18 1.387 1.77 3.28 1.77 5.68v0c0 1.4-0.217 2.69-0.65 3.87-0.433 1.187-1.05 2.213-1.85 3.08-0.8 0.867-1.757 1.54-2.87 2.02-1.12 0.487-2.363 0.73-3.73 0.73v0zM7.6-2.6h9.15c2.2 0 3.867-0.55 5-1.65 1.133-1.1 1.7-2.55 1.7-4.35v0-2.05c0-1.8-0.567-3.25-1.7-4.35-1.133-1.1-2.8-1.65-5-1.65v0h-9.15zM7.6-19.15h8.3c2 0 3.527-0.5 4.58-1.5 1.047-1 1.57-2.35 1.57-4.05v0-2c0-1.7-0.523-3.06-1.57-4.08-1.053-1.013-2.58-1.52-4.58-1.52v0h-8.3zM58.05 0h-3.15l-3.3-10.65h-13.2l-3.35 10.65h-3.1l11.1-34.9h3.95zM50.85-13.25l-5.7-18.45h-0.35l-5.7 18.45zM75 0.6v0c-1.567 0-2.967-0.15-4.2-0.45-1.233-0.3-2.35-0.707-3.35-1.22-1-0.52-1.89-1.147-2.67-1.88-0.787-0.733-1.497-1.533-2.13-2.4v0l2.2-1.8c1.3 1.667 2.733 2.94 4.3 3.82 1.567 0.887 3.55 1.33 5.95 1.33v0c2.8 0 4.95-0.627 6.45-1.88 1.5-1.247 2.25-3.053 2.25-5.42v0c0-2.167-0.627-3.767-1.88-4.8-1.247-1.033-3.02-1.733-5.32-2.1v0l-3.9-0.65c-1.733-0.3-3.173-0.75-4.32-1.35-1.153-0.6-2.08-1.31-2.78-2.13-0.7-0.813-1.19-1.72-1.47-2.72-0.287-1-0.43-2.033-0.43-3.1v0c0-3.133 1.027-5.477 3.08-7.03 2.047-1.547 4.803-2.32 8.27-2.32v0c2.833 0 5.16 0.457 6.98 1.37 1.813 0.92 3.27 2.18 4.37 3.78v0l-2.1 1.85c-1-1.4-2.223-2.483-3.67-3.25-1.453-0.767-3.347-1.15-5.68-1.15v0c-2.6 0-4.623 0.557-6.07 1.67-1.453 1.12-2.18 2.78-2.18 4.98v0c0 2.033 0.6 3.573 1.8 4.62 1.2 1.053 2.983 1.763 5.35 2.13v0l3.85 0.65c1.767 0.3 3.233 0.757 4.4 1.37 1.167 0.62 2.1 1.347 2.8 2.18 0.7 0.833 1.193 1.75 1.48 2.75 0.28 1 0.42 2.05 0.42 3.15v0c0 3.2-1.033 5.667-3.1 7.4-2.067 1.733-4.967 2.6-8.7 2.6zM115.9 0h-21.05v-34.9h21.05v2.6h-18.05v13.3h17.4v2.6h-17.4v13.8h18.05z" fill="#ffffff" fill-rule="nonzero" stroke="none" stroke-width="1" stroke-linecap="butt" stroke-linejoin="miter" stroke-miterlimit="10" stroke-dasharray="" stroke-dashoffset="0" font-family="none" font-weight="none" font-size="none" text-anchor="none" style="mix-blend-mode: normal" data-fill-palette-color="primary" opacity="1"></path></g></svg></g></svg></g></svg></g></svg></g><g><svg viewBox="0 0 328.7867478260869 248.5016117290192" height="248.5016117290192" width="328.7867478260869"><g><svg xmlns="http://www.w3.org/2000/svg" xmlns:xlink="http://www.w3.org/1999/xlink" version="1.1" x="0" y="0" viewBox="6.5 18 86 65" enable-background="new 0 0 100 100" xml:space="preserve" height="248.5016117290192" width="328.7867478260869" class="icon-icon-0" data-fill-palette-color="accent" id="icon-0"><g fill="#ffffff" data-fill-palette-color="accent"><path d="M35.845 61.275l-10.72-5.09c-1.209-0.572-1.94-1.463-1.94-2.703v-0.318c0-1.24 0.731-2.131 1.94-2.704l10.72-5.089c0.381-0.191 0.731-0.318 1.177-0.318 1.018-0.031 1.94 0.859 1.94 2.004 0 0.922-0.509 1.559-1.336 1.94l-9.606 4.294 9.606 4.295c0.827 0.381 1.336 1.113 1.336 2.004 0 1.177-0.922 2.004-2.1 1.972C36.513 61.562 36.163 61.435 35.845 61.275z" fill="#ffffff" data-fill-palette-color="accent"></path><path d="M41.889 66.047l12.438-25.988c0.35-0.731 0.922-1.113 1.686-1.113 1.018 0 1.876 0.859 1.876 1.813 0 0.35-0.127 0.7-0.222 0.923L45.229 67.669c-0.35 0.731-0.922 1.113-1.686 1.113-1.018 0-1.876-0.858-1.876-1.813C41.667 66.619 41.793 66.27 41.889 66.047z" fill="#ffffff" data-fill-palette-color="accent"></path><path d="M64.155 45.371l10.72 5.089c1.208 0.573 1.94 1.464 1.94 2.704v0.318c0 1.24-0.731 2.131-1.94 2.703l-10.72 5.09c-0.381 0.191-0.731 0.318-1.177 0.318-1.018 0.031-1.94-0.859-1.94-2.004 0-0.923 0.509-1.559 1.336-1.94l9.606-4.295-9.606-4.294c-0.827-0.381-1.336-1.113-1.336-2.004 0-1.177 0.923-2.004 2.1-1.973C63.487 45.084 63.837 45.212 64.155 45.371z" fill="#ffffff" data-fill-palette-color="accent"></path></g><path d="M92.5 21c0-1.657-1.343-3-3-3h-80c-1.657 0-3 1.343-3 3v59c0 1.657 1.343 3 3 3h80c1.657 0 3-1.343 3-3V21zM26 20.833c1.196 0 2.167 0.97 2.167 2.167s-0.97 2.167-2.167 2.167-2.167-0.97-2.167-2.167S24.804 20.833 26 20.833zM20 20.833c1.196 0 2.167 0.97 2.167 2.167s-0.97 2.167-2.167 2.167-2.167-0.97-2.167-2.167S18.804 20.833 20 20.833zM14 20.833c1.196 0 2.167 0.97 2.167 2.167s-0.97 2.167-2.167 2.167-2.167-0.97-2.167-2.167S12.804 20.833 14 20.833zM88.5 79h-78V29h78V79z" fill="#ffffff" data-fill-palette-color="accent"></path></svg><g></g></g></svg></g></svg></g><defs></defs></svg><rect width="395.52" height="138.35393772798054" fill="none" stroke="none" visibility="hidden"></rect></g></svg></g></svg>